<?xml version="1.0" encoding="iso-8859-1"?>
<!-- Generator: Adobe Illustrator 26.0.0, SVG Export Plug-In . SVG Version: 6.00 Build 0)  -->
<svg version="1.1" id="&#xB808;&#xC774;&#xC5B4;_1" xmlns="http://www.w3.org/2000/svg" xmlns:xlink="http://www.w3.org/1999/xlink"
	 x="0px" y="0px" viewBox="0 0 539.4 64.2" style="enable-background:new 0 0 539.4 64.2;" xml:space="preserve">
<g id="&#xB808;&#xC774;&#xC5B4;_2_00000006693485352440836950000009174903316378072472_">
	<g id="Type_A-1">
		<path style="fill:#0098C4;" d="M92.9,13.5H76.2V1.1h48.4v12.4h-16.8V63H92.9V13.5z"/>
		<path style="fill:#0098C4;" d="M134.1,1.1h39.2v12.4H149V25h20.7v12.4H149v13.1h25.3V63h-40.2V1.1z"/>
		<path style="fill:#0098C4;" d="M197.9,1.1h17.8l19.2,62h-15.6l-3.6-14.2h-18.3L193.8,63h-15.1L197.9,1.1z M200.2,37.3h12.6
			l-1.3-5.2c-1.7-6.1-3.2-13.6-4.9-19.9h-0.3c-1.5,6.5-3.2,13.7-4.7,19.9L200.2,37.3z"/>
		<path style="fill:#0098C4;" d="M241.4,1.1h16l9.8,26.8c1.2,3.6,2.2,7.5,3.4,11.2h0.4c1.2-3.8,2.2-7.7,3.4-11.2L284,1.1h16.1V63
			h-13.6V41.8c0-6.2,1.2-15.4,2-21.5h-0.4L283,35.2l-8.3,22.6h-8.1l-8.4-22.6l-5-14.8h-0.3c0.8,6.1,1.9,15.3,1.9,21.5V63h-13.3
			L241.4,1.1z"/>
		<path style="fill:#0098C4;" d="M308.4,1.1h15.1l3.9,28.3c0.8,6.5,1.7,13,2.5,19.6h0.3c1.2-6.7,2.4-13.2,3.7-19.6l6.3-28.3h12.6
			l6.4,28.3c1.2,6.3,2.3,13,3.6,19.6h0.4c0.8-6.7,1.6-13.2,2.3-19.6l4.1-28.3h14L373,63h-18.8l-5.6-27c-1-4.7-1.8-9.7-2.4-14.4h-0.3
			c-0.8,4.6-1.6,9.6-2.5,14.4L338,63h-18.3L308.4,1.1z"/>
		<path style="fill:#0098C4;" d="M392.1,1.1h39.2v12.4H407V25h20.7v12.4H407v13.1h25.3V63h-40.2L392.1,1.1L392.1,1.1z"/>
		<path style="fill:#0098C4;" d="M440.6,55.3l8.5-10.2c4.3,3.8,10.1,6.3,15,6.3c5.5,0,8.1-2.1,8.1-5.4c0-3.6-3.4-4.7-8.7-7l-7.9-3.3
			c-6.5-2.6-12.6-8-12.6-17C443,8.4,452.3,0,465.4,0c7.5,0,14.7,2.9,20.1,8.1l-7.4,9.3c-4.1-3.1-7.9-4.7-12.7-4.7
			c-4.6,0-7.3,1.8-7.3,5.1c0,3.5,3.8,4.8,9.3,7l7.7,3.1c7.6,3.1,12.2,8.2,12.2,17c0,10.3-8.6,19.4-23.6,19.4
			C455.1,64.2,446.9,61,440.6,55.3z"/>
		<path style="fill:#0098C4;" d="M507.7,13.5H491V1.1h48.4v12.4h-16.8V63h-14.9L507.7,13.5L507.7,13.5z"/>
		<rect x="20.8" y="21.5" style="fill:none;" width="20.8" height="20.8"/>
		<polygon style="fill:#0098C4;" points="41.5,21.5 41.5,0.8 20.8,0.8 0,0.8 0,21.5 0,42.3 20.8,42.3 20.8,21.5 		"/>
		<polygon style="fill:#0098C4;" points="41.5,21.5 41.5,42.3 20.8,42.3 20.8,63 41.5,63 62.2,63 62.2,42.3 62.2,21.5 		"/>
	</g>
</g>
</svg>
